<?xml version="1.0" ?><svg viewBox="0 0 64 64" xmlns="http://www.w3.org/2000/svg"><g data-name="29-Halloween" id="_29-Halloween"><rect height="32" rx="2" style="fill:#64e1dc" width="32" x="16" y="22"/><path d="M46,50H18a2.006,2.006,0,0,1-2-2v4a2.006,2.006,0,0,0,2,2H46a2.006,2.006,0,0,0,2-2V48A2.006,2.006,0,0,1,46,50Z" style="fill:#00c8c8"/><path d="M63,17V55a4,4,0,0,1-4,4H5a4,4,0,0,1-4-4V17ZM48,52V24a2.006,2.006,0,0,0-2-2H18a2.006,2.006,0,0,0-2,2V52a2.006,2.006,0,0,0,2,2H46A2.006,2.006,0,0,0,48,52Z" style="fill:#f5e1ff"/><path d="M18,57H46a2.006,2.006,0,0,0,2-2V52a2.006,2.006,0,0,1-2,2H18a2.006,2.006,0,0,1-2-2v3A2.006,2.006,0,0,0,18,57Z" style="fill:#e0b8ff"/><rect height="3" style="fill:#e0b8ff" width="62" x="1" y="17"/><polygon points="14 9 14 13 10 13 10 9 10 5 14 5 14 9" style="fill:#e0b8ff"/><polygon points="24 9 24 13 20 13 20 9 20 5 24 5 24 9" style="fill:#e0b8ff"/><polygon points="34 9 34 13 30 13 30 9 30 5 34 5 34 9" style="fill:#e0b8ff"/><polygon points="44 9 44 13 40 13 40 9 40 5 44 5 44 9" style="fill:#e0b8ff"/><polygon points="54 9 54 13 50 13 50 9 50 5 54 5 54 9" style="fill:#e0b8ff"/><path d="M63,13v4H1V13A4,4,0,0,1,5,9h5v4h4V9h6v4h4V9h6v4h4V9h6v4h4V9h6v4h4V9h5A4,4,0,0,1,63,13Z" style="fill:#b674f2"/><path d="M32,42a4.982,4.982,0,0,0-2.031-4A4.985,4.985,0,0,0,27,29H23v2h4a3,3,0,0,1,0,6H25v2h2a3,3,0,0,1,0,6H23v2h4A5.006,5.006,0,0,0,32,42Z" style="fill:#defafa"/><path d="M39,30a1,1,0,0,0-1-1H34v2h3V45H35v2h6V45H39Z" style="fill:#defafa"/><rect height="2" style="fill:#cbf7f7" width="18" x="23" y="25"/><rect height="2" style="fill:#cbf7f7" width="18" x="23" y="49"/><rect height="2" style="fill:#cbf7f7" width="2" x="19" y="25"/><rect height="2" style="fill:#cbf7f7" width="2" x="43" y="25"/><rect height="2" style="fill:#cbf7f7" width="2" x="19" y="49"/><rect height="2" style="fill:#cbf7f7" width="2" x="43" y="49"/><path d="M54,9h5a4,4,0,0,1,4,4V55a4,4,0,0,1-4,4H5a4,4,0,0,1-4-4V13A4,4,0,0,1,5,9h5" style="fill:none;stroke:#000;stroke-linejoin:round;stroke-width:2px"/><rect height="8" style="fill:none;stroke:#000;stroke-linejoin:round;stroke-width:2px" width="4" x="10" y="5"/><rect height="8" style="fill:none;stroke:#000;stroke-linejoin:round;stroke-width:2px" width="4" x="20" y="5"/><rect height="8" style="fill:none;stroke:#000;stroke-linejoin:round;stroke-width:2px" width="4" x="30" y="5"/><rect height="8" style="fill:none;stroke:#000;stroke-linejoin:round;stroke-width:2px" width="4" x="40" y="5"/><rect height="8" style="fill:none;stroke:#000;stroke-linejoin:round;stroke-width:2px" width="4" x="50" y="5"/><line style="fill:none;stroke:#000;stroke-linejoin:round;stroke-width:2px" x1="14" x2="20" y1="9" y2="9"/><line style="fill:none;stroke:#000;stroke-linejoin:round;stroke-width:2px" x1="24" x2="30" y1="9" y2="9"/><line style="fill:none;stroke:#000;stroke-linejoin:round;stroke-width:2px" x1="44" x2="50" y1="9" y2="9"/><line style="fill:none;stroke:#000;stroke-linejoin:round;stroke-width:2px" x1="34" x2="40" y1="9" y2="9"/><line style="fill:none;stroke:#000;stroke-linejoin:round;stroke-width:2px" x1="1" x2="63" y1="17" y2="17"/><rect height="32" rx="2" style="fill:none;stroke:#000;stroke-linejoin:round;stroke-width:2px" width="32" x="16" y="22"/><path d="M23,30h4a4,4,0,0,1,4,4h0a4,4,0,0,1-4,4H25" style="fill:none;stroke:#000;stroke-linejoin:round;stroke-width:2px"/><path d="M25,38h2a4,4,0,0,1,4,4h0a4,4,0,0,1-4,4H23" style="fill:none;stroke:#000;stroke-linejoin:round;stroke-width:2px"/><polyline points="34 30 38 30 38 46" style="fill:none;stroke:#000;stroke-linejoin:round;stroke-width:2px"/><line style="fill:none;stroke:#000;stroke-linejoin:round;stroke-width:2px" x1="35" x2="41" y1="46" y2="46"/><line style="fill:none;stroke:#000;stroke-linejoin:round;stroke-width:2px" x1="23" x2="41" y1="26" y2="26"/><line style="fill:none;stroke:#000;stroke-linejoin:round;stroke-width:2px" x1="23" x2="41" y1="50" y2="50"/><line style="fill:none;stroke:#000;stroke-linejoin:round;stroke-width:2px" x1="21" x2="19" y1="26" y2="26"/><line style="fill:none;stroke:#000;stroke-linejoin:round;stroke-width:2px" x1="45" x2="43" y1="26" y2="26"/><line style="fill:none;stroke:#000;stroke-linejoin:round;stroke-width:2px" x1="21" x2="19" y1="50" y2="50"/><line style="fill:none;stroke:#000;stroke-linejoin:round;stroke-width:2px" x1="45" x2="43" y1="50" y2="50"/></g></svg>